<svg version="1.1" id="Layer_1" xmlns="http://www.w3.org/2000/svg" xmlns:xlink="http://www.w3.org/1999/xlink" x="0px" y="0px"
	 width="100%" viewBox="0 0 596 594" enable-background="new 0 0 596 594" xml:space="preserve">
<path fill="#FEFEFF" opacity="1.000000" stroke="none" 
	d="
M273.000000,595.000000 
	C182.406403,595.000000 91.812820,595.000000 1.000000,595.000000 
	C1.000000,504.979218 1.000000,414.958282 1.365285,324.681763 
	C4.512165,340.558990 7.293761,356.691772 10.074409,373.229034 
	C11.325992,378.084442 12.398065,382.599457 13.942856,386.946533 
	C14.396540,388.223206 16.179317,389.893982 17.372641,389.909912 
	C32.437126,390.111023 47.505219,390.042053 63.165112,390.042053 
	C61.664337,386.133728 60.322376,382.639008 58.981392,378.749084 
	C40.705822,321.568329 42.699631,265.174286 62.833000,208.810150 
	C47.272377,208.810150 32.290539,208.724030 17.314034,208.966644 
	C16.057945,208.987000 14.051070,211.034332 13.721982,212.449081 
	C10.298801,227.165298 7.051218,241.924713 3.968813,256.716705 
	C2.710505,262.755127 1.973935,268.902313 1.000000,275.000000 
	C1.000000,183.740005 1.000000,92.480026 1.000000,1.000000 
	C91.020775,1.000000 181.041733,1.000000 271.277710,1.333986 
	C221.780197,5.443254 175.792404,20.535290 133.862961,47.528744 
	C92.030708,74.459625 59.183563,109.833458 34.479877,153.607498 
	C41.772709,154.082382 46.846882,154.416412 51.538540,147.632858 
	C99.857567,77.769409 166.713348,38.122520 250.917831,28.272230 
	C303.349457,22.138748 352.836761,32.953091 399.570068,57.130947 
	C401.877777,58.324860 403.252533,59.271118 402.377960,62.370087 
	C401.534454,65.358902 401.435303,68.639580 401.481049,71.785172 
	C402.060059,111.596481 442.484100,137.116501 478.833221,120.492775 
	C482.262787,118.924316 483.917206,119.344315 486.261810,122.039604 
	C541.400818,185.424820 564.327087,258.697784 553.060608,342.075775 
	C545.017395,401.599915 519.300842,452.950012 476.864502,495.242401 
	C421.428436,550.490356 354.044159,577.360413 275.647614,576.116943 
	C232.103088,575.426392 191.063629,564.752197 152.679901,544.294983 
	C110.086075,521.593933 75.671715,489.831879 49.477295,449.263214 
	C47.830975,446.713470 46.136501,445.469940 43.093380,445.750153 
	C40.526218,445.986511 37.920017,445.798828 34.584805,445.798828 
	C35.804905,447.977386 36.558113,449.409363 37.389706,450.794220 
	C51.967396,475.070740 69.374695,497.089172 90.311646,516.189575 
	C136.508530,558.334106 190.506287,583.926697 252.596024,592.193359 
	C259.401276,593.099426 266.198853,594.063049 273.000000,595.000000 
M92.000000,362.000000 
	C92.000000,362.000000 91.978714,362.018280 92.104744,362.542633 
	C92.399300,362.727081 92.693855,362.911530 93.143509,363.537109 
	C93.328270,363.818146 93.588097,363.974213 94.076561,364.522095 
	C94.380478,364.692566 94.684395,364.863007 95.002571,364.999786 
	C95.002571,364.999786 94.969948,365.015991 95.152100,365.617981 
	C96.084724,366.435577 97.017349,367.253174 97.996986,368.003387 
	C97.996986,368.003387 97.929771,368.050629 98.171135,368.670563 
	C100.075951,370.166626 101.980774,371.662720 103.935616,373.057526 
	C103.935616,373.057526 103.833717,373.106232 104.020515,373.618652 
	C104.340469,373.764313 104.660431,373.909973 104.996056,373.999176 
	C104.996056,373.999176 104.946480,374.030365 105.177986,374.569122 
	C105.685516,374.843964 106.193054,375.118805 106.831192,375.201385 
	C106.831192,375.201385 106.647461,375.343750 106.943108,375.869263 
	C107.628639,376.249512 108.314163,376.629761 108.999550,376.998779 
	C108.999550,376.998779 108.987984,377.003662 109.321762,377.531616 
	C110.217812,378.016479 111.113853,378.501343 112.000305,379.000000 
	C112.000305,379.000000 112.013641,378.988159 112.325745,379.494751 
	C112.860741,379.716309 113.395737,379.937866 113.945206,380.061493 
	C113.945206,380.061493 113.862755,380.116272 114.220566,380.694489 
	C116.055115,381.594482 117.889664,382.494446 120.029068,383.125275 
	C120.029068,383.125275 119.705673,383.371490 120.135612,383.907135 
	C137.529907,392.424072 155.870636,395.077301 175.686249,392.842621 
	C176.116440,392.724426 176.546646,392.606201 177.762665,392.572021 
	C184.383957,390.794617 191.005264,389.017242 197.824142,387.264954 
	C197.824142,387.264954 197.952972,387.113068 198.683746,387.098114 
	C199.969833,386.469055 201.255920,385.839996 202.796783,385.249695 
	C202.796783,385.249695 202.952667,385.044495 203.577499,385.063385 
	C204.075714,384.728516 204.573929,384.393646 205.016022,384.005798 
	C205.016022,384.005798 205.026871,384.082214 205.638489,384.086304 
	C206.116791,383.742310 206.595078,383.398285 207.018723,383.004547 
	C207.018723,383.004547 207.023865,383.078247 207.638199,383.072723 
	C208.112579,382.727722 208.586960,382.382721 209.012344,381.997253 
	C209.012344,381.997253 209.021774,382.060089 209.697067,381.997467 
	C211.165848,381.023254 212.634628,380.049011 214.032593,379.026062 
	C214.032593,379.026062 214.041870,379.111511 214.625381,379.065918 
	C215.060730,378.694855 215.496078,378.323822 215.976624,378.005554 
	C215.976624,378.005554 215.966095,377.936920 216.506287,377.908081 
	C216.716187,377.633057 216.926086,377.358063 217.043442,377.038239 
	C217.043442,377.038239 217.086960,377.131409 217.706116,377.025452 
	C218.489349,376.361359 219.272598,375.697266 220.007568,374.997650 
	C220.007568,374.997650 220.017868,375.056732 220.647552,374.946655 
	C221.908234,373.891205 223.168900,372.835754 224.607269,371.653595 
	C224.607269,371.653595 224.757538,371.495331 225.219650,371.269104 
	C225.525558,370.886230 225.831451,370.503357 226.043091,370.032990 
	C226.043091,370.032990 226.091614,370.152069 226.731415,369.968994 
	C228.257767,368.394501 229.784119,366.819977 231.162949,365.163513 
	C231.162949,365.163513 231.255524,365.304626 231.830032,365.105652 
	C232.322845,364.482727 232.815674,363.859772 233.193756,363.194763 
	C233.193756,363.194763 233.237137,363.309021 233.831909,363.076416 
	C234.584229,362.068451 235.336548,361.060516 236.009460,360.012604 
	C236.009460,360.012604 236.058060,360.087036 236.599426,359.899384 
	C236.896072,359.420929 237.192703,358.942505 237.132065,358.189392 
	C237.132065,358.189392 237.515610,358.426056 238.012375,358.104553 
	C238.400818,357.435516 238.789276,356.766510 239.084656,356.079346 
	C239.084656,356.079346 239.115875,356.168884 239.630234,355.983063 
	C239.771210,355.661713 239.912186,355.340332 239.997742,355.005249 
	C239.997742,355.005249 240.031845,355.051025 240.592987,354.766022 
	C241.086563,353.860443 241.580124,352.954865 241.995880,352.015656 
	C241.995880,352.015656 242.058136,352.073456 242.598312,351.749817 
	C243.065598,350.830963 243.532898,349.912109 243.998779,348.999268 
	C243.998779,348.999268 243.994888,349.003632 244.492905,348.669617 
	C244.692368,348.123047 244.891830,347.576508 245.010986,347.023499 
	C245.010986,347.023499 245.065109,347.083191 245.625046,346.689850 
	C247.462662,342.452057 249.300278,338.214233 251.300598,333.832214 
	C251.300598,333.832214 251.268005,333.617249 251.808670,333.071350 
	C252.757889,329.724457 253.707108,326.377533 254.437057,322.221527 
	C238.934952,322.139313 223.432877,322.043854 207.930695,322.024048 
	C207.320526,322.023254 206.709427,322.744324 205.620239,323.608704 
	C203.191620,327.380829 201.048737,331.377686 198.287689,334.888367 
	C181.341187,356.435760 149.808304,358.422791 130.466873,338.980164 
	C114.201691,322.629883 110.888321,302.772827 116.967422,281.273987 
	C122.886528,260.341034 140.173294,246.654816 161.742432,246.399017 
	C181.088684,246.169601 195.489761,255.538910 204.024750,272.994324 
	C205.966919,276.966370 208.083267,278.065613 212.269638,277.966888 
	C224.761063,277.672302 237.263901,277.861420 249.762283,277.861633 
	C251.364059,277.861633 252.965836,277.861633 255.057938,277.861633 
	C254.414307,275.117096 254.036880,273.008972 253.424362,270.971466 
	C245.615097,244.994873 220.994247,210.373611 175.941559,205.812286 
	C139.949905,202.168320 109.930702,212.964706 87.055183,241.505585 
	C71.472687,260.947235 66.422363,283.542572 67.950554,308.823608 
	C68.315315,311.073059 68.444321,313.392517 69.087555,315.559296 
	C71.310608,323.047729 73.712822,330.482941 75.994164,337.970703 
	C75.994164,337.970703 76.055786,337.971466 76.030632,338.603302 
	C76.284668,338.921265 76.538696,339.239258 76.759590,339.812866 
	C76.759590,339.812866 76.970512,339.961121 76.967255,340.570557 
	C77.308807,341.054993 77.650360,341.539429 78.005524,342.003754 
	C78.005524,342.003754 77.981979,341.999390 77.971603,342.548401 
	C78.216789,342.796906 78.461983,343.045410 78.820679,343.143311 
	C78.820679,343.143311 78.656662,343.236389 78.797401,343.937073 
	C80.818634,347.011719 82.839859,350.086395 84.924728,353.061920 
	C84.924728,353.061920 84.814262,353.102783 84.944733,353.725128 
	C85.629784,354.506470 86.314842,355.287781 87.096703,356.515045 
	C87.234352,356.818207 87.467339,356.997498 87.966675,357.684265 
	C88.986221,358.776031 90.005768,359.867828 90.997696,360.998199 
	C90.997696,360.998199 91.042686,360.983337 91.129684,361.494934 
	C91.413475,361.670258 91.697266,361.845551 92.000000,362.000000 
M256.898743,249.998154 
	C268.249878,250.055023 279.600983,250.111893 290.980103,250.581253 
	C290.980103,250.581253 291.136139,250.964127 290.996368,251.901138 
	C290.996368,297.821655 290.996368,343.742157 290.996368,389.986786 
	C306.289276,389.986786 321.080353,389.996582 335.871155,389.937683 
	C336.298767,389.936005 336.723511,389.207214 337.406311,388.505157 
	C337.406311,388.505157 337.353058,388.104370 337.720703,387.358276 
	C337.748230,343.384430 337.761292,299.410522 337.854095,255.436798 
	C337.857971,253.604645 338.606720,251.774048 339.943085,250.018814 
	C349.839355,250.017349 359.736633,250.079102 369.630585,249.927460 
	C370.757782,249.910187 371.866638,248.695847 373.191986,247.114365 
	C373.191986,234.509109 373.191986,221.903870 373.191986,209.137970 
	C372.160919,208.979782 371.534180,208.799713 370.907349,208.799469 
	C333.447327,208.784744 295.987274,208.774063 258.527374,208.838562 
	C257.466675,208.840393 256.407349,209.658691 255.175613,211.006424 
	C255.229416,221.339081 255.283218,231.671738 255.169525,242.494827 
	C255.225525,242.658264 255.281509,242.821686 255.167984,243.767563 
	C255.226959,244.828537 255.285919,245.889511 255.149078,247.604462 
	C255.426636,248.329651 255.704193,249.054825 256.898743,249.998154 
M435.962311,333.216187 
	C442.587830,333.219299 449.215820,333.340057 455.838287,333.199951 
	C467.913849,332.944489 479.945343,332.300323 491.892822,327.052429 
	C498.007629,322.878235 505.130493,319.643799 510.055695,314.360626 
	C527.620056,295.519714 529.687134,272.870239 523.058533,249.151382 
	C519.020813,234.703445 510.279083,223.394043 495.834503,216.395065 
	C495.228363,216.231949 494.622192,216.068848 494.023834,215.980515 
	C494.023834,215.980515 494.089691,215.944275 493.631256,215.388229 
	C486.600647,213.586594 479.614044,210.453674 472.531586,210.219360 
	C445.373444,209.320816 418.184570,209.352722 390.184814,209.346130 
	C390.115845,210.339523 389.986694,211.332901 389.986511,212.326309 
	C389.975250,270.659302 389.973938,328.992279 389.980225,387.325256 
	C389.980316,388.109711 390.090027,388.894165 390.172272,389.996094 
	C404.602844,389.996094 418.732422,390.006348 432.861664,389.947998 
	C433.299194,389.946198 433.733765,389.233215 434.417023,388.433228 
	C434.532288,388.078064 434.443512,387.784637 434.540619,386.731720 
	C434.572998,377.292358 434.554443,367.852509 434.652893,358.413818 
	C434.740753,349.987427 434.957886,341.562347 435.031158,333.003021 
	C435.031158,333.003021 435.137207,333.122498 435.962311,333.216187 
z"/>
<path fill="#0423DB" opacity="1.000000" stroke="none" 
	d="
M273.463196,595.000000 
	C266.198853,594.063049 259.401276,593.099426 252.596024,592.193359 
	C190.506287,583.926697 136.508530,558.334106 90.311646,516.189575 
	C69.374695,497.089172 51.967396,475.070740 37.389706,450.794220 
	C36.558113,449.409363 35.804905,447.977386 34.584805,445.798828 
	C37.920017,445.798828 40.526218,445.986511 43.093380,445.750153 
	C46.136501,445.469940 47.830975,446.713470 49.477295,449.263214 
	C75.671715,489.831879 110.086075,521.593933 152.679901,544.294983 
	C191.063629,564.752197 232.103088,575.426392 275.647614,576.116943 
	C354.044159,577.360413 421.428436,550.490356 476.864502,495.242401 
	C519.300842,452.950012 545.017395,401.599915 553.060608,342.075775 
	C564.327087,258.697784 541.400818,185.424820 486.261810,122.039604 
	C483.917206,119.344315 482.262787,118.924316 478.833221,120.492775 
	C442.484100,137.116501 402.060059,111.596481 401.481049,71.785172 
	C401.435303,68.639580 401.534454,65.358902 402.377960,62.370087 
	C403.252533,59.271118 401.877777,58.324860 399.570068,57.130947 
	C352.836761,32.953091 303.349457,22.138748 250.917831,28.272230 
	C166.713348,38.122520 99.857567,77.769409 51.538540,147.632858 
	C46.846882,154.416412 41.772709,154.082382 34.479877,153.607498 
	C59.183563,109.833458 92.030708,74.459625 133.862961,47.528744 
	C175.792404,20.535290 221.780197,5.443254 271.746399,1.333986 
	C287.354218,1.000000 302.708466,1.000000 318.687683,1.364085 
	C325.234314,2.293216 331.177307,2.691917 337.073853,3.451567 
	C365.424408,7.103976 392.920471,13.941121 418.913818,26.084787 
	C421.962372,27.509026 424.059662,27.403719 426.986572,25.553511 
	C446.040710,13.508690 470.173248,14.432570 487.944702,27.614439 
	C506.745483,41.559826 513.675110,63.553669 508.015045,85.626144 
	C507.089996,89.233536 507.933685,91.251610 510.239288,93.860054 
	C573.587097,165.529617 598.767212,249.009476 584.549683,343.397797 
	C574.015991,413.329620 541.076355,472.045410 488.315613,519.219055 
	C442.788116,559.925415 389.540710,584.255005 328.899963,592.193848 
	C321.930298,593.106201 314.966522,594.063477 308.000000,595.000000 
	C304.307098,595.000000 300.614166,595.000000 296.193604,594.696045 
	C292.310638,594.594788 289.155334,594.797363 286.000000,595.000000 
	C281.975464,595.000000 277.950897,595.000000 273.463196,595.000000 
z"/>
<path fill="#FEFEFF" opacity="1.000000" stroke="none" 
	d="
M308.468658,595.000000 
	C314.966522,594.063477 321.930298,593.106201 328.899963,592.193848 
	C389.540710,584.255005 442.788116,559.925415 488.315613,519.219055 
	C541.076355,472.045410 574.015991,413.329620 584.549683,343.397797 
	C598.767212,249.009476 573.587097,165.529617 510.239288,93.860054 
	C507.933685,91.251610 507.089996,89.233536 508.015045,85.626144 
	C513.675110,63.553669 506.745483,41.559826 487.944702,27.614439 
	C470.173248,14.432570 446.040710,13.508690 426.986572,25.553511 
	C424.059662,27.403719 421.962372,27.509026 418.913818,26.084787 
	C392.920471,13.941121 365.424408,7.103976 337.073853,3.451567 
	C331.177307,2.691917 325.234314,2.293216 319.156372,1.364085 
	C411.631775,1.000000 504.263550,1.000000 596.947632,1.000000 
	C596.947632,198.890533 596.947632,396.781067 596.947632,595.000000 
	C500.979370,595.000000 404.958344,595.000000 308.468658,595.000000 
z"/>
<path fill="#0222DC" opacity="1.000000" stroke="none" 
	d="
M1.000000,275.375000 
	C1.973935,268.902313 2.710505,262.755127 3.968813,256.716705 
	C7.051218,241.924713 10.298801,227.165298 13.721982,212.449081 
	C14.051070,211.034332 16.057945,208.987000 17.314034,208.966644 
	C32.290539,208.724030 47.272377,208.810150 62.833000,208.810150 
	C42.699631,265.174286 40.705822,321.568329 58.975548,379.145538 
	C59.520069,382.780945 60.071419,385.624695 60.720024,388.970062 
	C46.327332,388.970062 32.425053,389.067474 18.529261,388.811920 
	C17.210316,388.787689 15.296371,386.783478 14.754962,385.298706 
	C13.176389,380.969604 12.153902,376.437683 10.779084,371.624329 
	C6.529064,353.867493 3.383230,336.334930 2.891131,318.399445 
	C2.859590,317.249878 1.657530,316.132416 0.999994,315.000000 
	C1.000000,304.312439 1.000000,293.624878 1.289540,282.280273 
	C1.386054,280.415466 1.193027,279.207733 1.000000,278.000000 
	C1.000000,277.250000 1.000000,276.500000 1.000000,275.375000 
z"/>
<path fill="#2338BF" opacity="1.000000" stroke="none" 
	d="
M0.999994,315.449982 
	C1.657530,316.132416 2.859590,317.249878 2.891131,318.399445 
	C3.383230,336.334930 6.529064,353.867493 10.599739,371.717865 
	C10.345668,372.353516 10.185883,372.570923 10.075358,372.824554 
	C7.293761,356.691772 4.512165,340.558990 1.365285,324.213104 
	C1.000000,321.299988 1.000000,318.599976 0.999994,315.449982 
z"/>
<path fill="#3751FF" opacity="1.000000" stroke="none" 
	d="
M286.454102,595.000000 
	C289.155334,594.797363 292.310638,594.594788 295.732971,594.696045 
	C292.969391,595.000000 289.938812,595.000000 286.454102,595.000000 
z"/>
<path fill="#6B87FF" opacity="1.000000" stroke="none" 
	d="
M1.000000,278.399994 
	C1.193027,279.207733 1.386054,280.415466 1.289540,281.811584 
	C1.000000,280.933319 1.000000,279.866669 1.000000,278.399994 
z"/>
<path fill="#0323DC" opacity="1.000000" stroke="none" 
	d="
M251.268005,333.617249 
	C251.268005,333.617249 251.300598,333.832214 250.875397,334.048523 
	C248.655151,338.537628 246.860138,342.810425 245.065109,347.083191 
	C245.065109,347.083191 245.010986,347.023499 244.781174,347.172424 
	C244.365875,347.882111 244.180374,348.442871 243.994873,349.003632 
	C243.994888,349.003632 243.998779,348.999268 243.648712,349.045837 
	C242.885132,350.086060 242.471619,351.079742 242.058121,352.073456 
	C242.058136,352.073456 241.995880,352.015656 241.682816,352.070435 
	C240.923798,353.100464 240.477829,354.075745 240.031860,355.051025 
	C240.031845,355.051025 239.997742,355.005249 239.778244,355.117249 
	C239.411118,355.542419 239.263489,355.855652 239.115875,356.168884 
	C239.115875,356.168884 239.084656,356.079346 238.811554,356.177917 
	C238.197510,356.992981 237.856552,357.709534 237.515610,358.426056 
	C237.515610,358.426056 237.132065,358.189392 236.982590,358.307709 
	C236.574768,358.979706 236.316422,359.533356 236.058075,360.087036 
	C236.058060,360.087036 236.009460,360.012604 235.708618,360.057495 
	C234.684235,361.171295 233.960678,362.240143 233.237137,363.309021 
	C233.237137,363.309021 233.193756,363.194763 232.922119,363.244812 
	C232.185516,363.964813 231.720535,364.634735 231.255524,365.304626 
	C231.255524,365.304626 231.162949,365.163513 230.897141,365.236633 
	C229.118103,366.923859 227.604858,368.537964 226.091614,370.152069 
	C226.091614,370.152069 226.043091,370.032990 225.760178,370.070587 
	C225.237366,370.570557 224.997452,371.032959 224.757538,371.495331 
	C224.757538,371.495331 224.607269,371.653595 224.201599,371.523560 
	C222.536591,372.614594 221.277222,373.835663 220.017853,375.056732 
	C220.017868,375.056732 220.007568,374.997650 219.666824,374.998596 
	C218.579712,375.710205 217.833344,376.420807 217.086975,377.131409 
	C217.086960,377.131409 217.043442,377.038239 216.834488,377.104492 
	C216.405716,377.426117 216.185898,377.681519 215.966095,377.936920 
	C215.966095,377.936920 215.976624,378.005554 215.651733,377.994263 
	C214.898529,378.359161 214.470200,378.735321 214.041870,379.111511 
	C214.041870,379.111511 214.032593,379.026062 213.716797,379.037354 
	C211.941254,380.052460 210.481522,381.056274 209.021774,382.060089 
	C209.021774,382.060089 209.012344,381.997253 208.725250,382.011841 
	C207.966705,382.377045 207.495285,382.727661 207.023865,383.078247 
	C207.023865,383.078247 207.018723,383.004547 206.731293,383.008850 
	C205.971527,383.369476 205.499207,383.725861 205.026886,384.082214 
	C205.026871,384.082214 205.016022,384.005798 204.728348,384.012115 
	C203.944672,384.360474 203.448669,384.702484 202.952667,385.044495 
	C202.952667,385.044495 202.796783,385.249695 202.275696,385.167480 
	C200.487381,385.761230 199.220184,386.437134 197.952972,387.113068 
	C197.952972,387.113068 197.824142,387.264954 197.285034,387.180359 
	C194.837418,387.457916 192.887741,387.676788 191.028427,388.210419 
	C186.322922,389.560913 181.658005,391.052765 176.976837,392.488007 
	C176.546646,392.606201 176.116440,392.724426 175.020355,392.559448 
	C172.701538,392.192230 171.040451,391.958496 169.396942,392.047852 
	C156.542740,392.746735 143.988037,391.269379 131.760269,387.147156 
	C127.771149,385.802338 123.725479,384.625275 119.705673,383.371490 
	C119.705673,383.371490 120.029068,383.125275 119.808716,382.910583 
	C117.679832,381.835999 115.771294,380.976135 113.862755,380.116272 
	C113.862755,380.116272 113.945206,380.061493 113.816353,379.825836 
	C113.129547,379.389496 112.571594,379.188843 112.013641,378.988159 
	C112.013641,378.988159 112.000305,379.000000 111.953102,378.648804 
	C110.933258,377.866272 109.960625,377.434967 108.987984,377.003662 
	C108.987984,377.003662 108.999550,376.998779 108.872910,376.714478 
	C108.046669,376.068024 107.347061,375.705902 106.647461,375.343750 
	C106.647461,375.343750 106.831192,375.201385 106.727707,374.976929 
	C106.064980,374.511780 105.505730,374.271057 104.946480,374.030365 
	C104.946480,374.030365 104.996056,373.999176 104.883133,373.780212 
	C104.458046,373.409546 104.145874,373.257904 103.833710,373.106262 
	C103.833717,373.106232 103.935616,373.057526 103.912155,372.746155 
	C101.902397,370.973419 99.916084,369.512024 97.929771,368.050629 
	C97.929771,368.050629 97.996986,368.003387 97.961670,367.689484 
	C96.940887,366.589050 95.955414,365.802521 94.969940,365.015991 
	C94.969948,365.015991 95.002571,364.999786 94.905037,364.767883 
	C94.512672,364.359070 94.217834,364.182159 93.922997,364.005249 
	C93.588097,363.974213 93.328270,363.818146 92.990326,363.062439 
	C92.551003,362.397980 92.264854,362.208130 91.978714,362.018280 
	C91.978714,362.018280 92.000000,362.000000 91.920441,361.770874 
	C91.658073,361.236603 91.392006,361.050476 91.042686,360.983337 
	C91.042686,360.983337 90.997696,360.998199 91.016708,360.624207 
	C89.955696,359.184448 88.875679,358.118683 87.795654,357.052917 
	C87.467339,356.997498 87.234352,356.818207 87.040237,355.952820 
	C86.260597,354.627991 85.537430,353.865387 84.814255,353.102783 
	C84.814262,353.102783 84.924728,353.061920 84.932121,352.731659 
	C82.845230,349.346405 80.750946,346.291382 78.656662,343.236389 
	C78.656662,343.236389 78.820679,343.143311 78.779678,342.943756 
	C78.486443,342.495941 78.234207,342.247650 77.981979,341.999390 
	C77.981979,341.999390 78.005524,342.003754 78.007629,341.702820 
	C77.663322,340.921661 77.316917,340.441376 76.970512,339.961121 
	C76.970512,339.961121 76.759590,339.812866 76.785019,339.370331 
	C76.558891,338.609009 76.307335,338.290253 76.055786,337.971466 
	C76.055786,337.971466 75.994164,337.970703 76.030846,337.549103 
	C74.131851,329.546143 72.231354,321.955475 70.238297,314.389252 
	C69.666290,312.217712 68.826912,310.116638 68.110123,307.983246 
	C66.422363,283.542572 71.472687,260.947235 87.055183,241.505585 
	C109.930702,212.964706 139.949905,202.168320 175.941559,205.812286 
	C220.994247,210.373611 245.615097,244.994873 253.424362,270.971466 
	C254.036880,273.008972 254.414307,275.117096 255.057938,277.861633 
	C252.965836,277.861633 251.364059,277.861633 249.762283,277.861633 
	C237.263901,277.861420 224.761063,277.672302 212.269638,277.966888 
	C208.083267,278.065613 205.966919,276.966370 204.024750,272.994324 
	C195.489761,255.538910 181.088684,246.169601 161.742432,246.399017 
	C140.173294,246.654816 122.886528,260.341034 116.967422,281.273987 
	C110.888321,302.772827 114.201691,322.629883 130.466873,338.980164 
	C149.808304,358.422791 181.341187,356.435760 198.287689,334.888367 
	C201.048737,331.377686 203.191620,327.380829 206.323395,323.349670 
	C222.349472,323.102051 237.672363,323.113434 252.995880,323.512329 
	C252.420319,327.138947 251.844162,330.378082 251.268005,333.617249 
z"/>
<path fill="#0222DD" opacity="1.000000" stroke="none" 
	d="
M496.208893,216.914444 
	C510.279083,223.394043 519.020813,234.703445 523.058533,249.151382 
	C529.687134,272.870239 527.620056,295.519714 510.055695,314.360626 
	C505.130493,319.643799 498.007629,322.878235 491.113892,327.026428 
	C487.958862,327.642273 485.610901,328.426910 483.201935,328.902435 
	C469.162659,331.673889 454.977783,332.492096 440.689880,332.063477 
	C438.851257,332.008270 436.988678,332.749939 435.137207,333.122498 
	C435.137207,333.122498 435.031158,333.003021 434.702637,333.202911 
	C433.920410,335.241180 433.090057,337.076172 433.073486,338.918488 
	C432.958527,351.694977 432.934204,364.473785 433.064850,377.250000 
	C433.099976,380.687622 433.771393,384.118774 434.150726,387.552887 
	C434.443512,387.784637 434.532288,388.078064 433.812378,388.664734 
	C420.560120,388.925293 407.911194,388.862701 395.265869,389.046722 
	C392.025421,389.093872 390.954254,388.132996 390.960449,384.821411 
	C391.069427,326.573578 391.072205,268.325562 391.556335,210.047623 
	C414.753143,210.011978 437.492371,209.907181 460.229553,210.076935 
	C465.306549,210.114838 470.426331,210.839783 475.436737,211.744736 
	C481.702820,212.876480 487.876251,214.521072 494.089691,215.944275 
	C494.089691,215.944275 494.023834,215.980515 494.184845,216.228699 
	C494.966858,216.622742 495.587891,216.768600 496.208893,216.914444 
M460.500092,291.551941 
	C461.974609,291.320892 463.465942,291.166534 464.920959,290.846710 
	C477.298492,288.125916 483.482269,279.120911 481.510834,267.258057 
	C480.401154,260.580688 476.403046,256.342529 470.585999,252.463623 
	C468.041473,251.887589 465.496948,251.311539 462.242035,250.788452 
	C461.806396,250.622101 461.370758,250.455734 460.620178,249.634399 
	C455.257080,249.415695 449.893890,249.035736 444.530945,249.039352 
	C441.359283,249.041489 438.188049,249.650040 434.665924,250.669907 
	C434.784576,264.454956 434.903229,278.239990 435.585724,292.641113 
	C443.543060,292.751038 451.500366,292.865601 459.458069,292.929413 
	C459.586212,292.930481 459.719330,292.310425 460.500092,291.551941 
z"/>
<path fill="#0021DE" opacity="1.000000" stroke="none" 
	d="
M255.337006,242.004395 
	C255.283218,231.671738 255.229416,221.339081 255.707153,210.529144 
	C291.396759,210.032425 326.554840,210.011703 361.712921,209.994400 
	C371.999023,209.989334 372.005615,209.993805 371.997406,220.165771 
	C371.989899,229.420700 371.966003,238.675629 371.577698,248.120087 
	C369.438629,248.536270 367.673370,248.938553 365.903473,248.960052 
	C356.846741,249.070007 347.788757,249.081772 338.375061,249.211548 
	C337.398529,251.015152 336.240570,252.733826 336.236511,254.455215 
	C336.135773,297.312805 336.143158,340.170746 336.206848,383.028473 
	C336.209381,384.721008 336.954163,386.412415 337.353058,388.104370 
	C337.353058,388.104370 337.406311,388.505157 336.799377,388.705292 
	C323.551361,388.927094 310.903564,388.717163 298.272369,389.081879 
	C293.056213,389.232513 291.881012,387.359711 291.901245,382.460815 
	C292.074158,340.544403 292.015411,298.626984 291.969543,256.709900 
	C291.967438,254.794342 291.426270,252.879379 291.136139,250.964127 
	C291.136139,250.964127 290.980103,250.581253 290.933594,250.007935 
	C290.571747,249.081818 290.252899,248.417740 289.941589,248.421265 
	C278.978699,248.544952 268.016541,248.731354 257.005096,248.625793 
	C256.418915,247.878616 255.881912,247.414551 255.344879,246.950485 
	C255.285919,245.889511 255.226959,244.828537 255.385864,243.282074 
	C255.772354,242.458969 255.683441,242.194901 255.337006,242.004395 
z"/>
<path fill="#4355D0" opacity="1.000000" stroke="none" 
	d="
M337.536865,387.731323 
	C336.954163,386.412415 336.209381,384.721008 336.206848,383.028473 
	C336.143158,340.170746 336.135773,297.312805 336.236511,254.455215 
	C336.240570,252.733826 337.398529,251.015152 338.443909,249.415283 
	C338.868958,249.535370 339.008453,249.942734 339.008453,249.942734 
	C338.606720,251.774048 337.857971,253.604645 337.854095,255.436798 
	C337.761292,299.410522 337.748230,343.384430 337.536865,387.731323 
z"/>
<path fill="#1228A0" opacity="1.000000" stroke="none" 
	d="
M391.097992,210.077591 
	C391.072205,268.325562 391.069427,326.573578 390.960449,384.821411 
	C390.954254,388.132996 392.025421,389.093872 395.265869,389.046722 
	C407.911194,388.862701 420.560120,388.925293 433.688721,388.874023 
	C433.733765,389.233215 433.299194,389.946198 432.861664,389.947998 
	C418.732422,390.006348 404.602844,389.996094 390.172272,389.996094 
	C390.090027,388.894165 389.980316,388.109711 389.980225,387.325256 
	C389.973938,328.992279 389.975250,270.659302 389.986511,212.326309 
	C389.986694,211.332901 390.115845,210.339523 390.613892,209.452240 
	C391.061340,209.731415 391.079651,209.904510 391.097992,210.077591 
z"/>
<path fill="#0C24AB" opacity="1.000000" stroke="none" 
	d="
M291.066254,251.432632 
	C291.426270,252.879379 291.967438,254.794342 291.969543,256.709900 
	C292.015411,298.626984 292.074158,340.544403 291.901245,382.460815 
	C291.881012,387.359711 293.056213,389.232513 298.272369,389.081879 
	C310.903564,388.717163 323.551361,388.927094 336.671021,388.861450 
	C336.723511,389.207214 336.298767,389.936005 335.871155,389.937683 
	C321.080353,389.996582 306.289276,389.986786 290.996368,389.986786 
	C290.996368,343.742157 290.996368,297.821655 291.066254,251.432632 
z"/>
<path fill="#152DBE" opacity="1.000000" stroke="none" 
	d="
M371.949341,247.930557 
	C371.966003,238.675629 371.989899,229.420700 371.997406,220.165771 
	C372.005615,209.993805 371.999023,209.989334 361.712921,209.994400 
	C326.554840,210.011703 291.396759,210.032425 255.793030,210.074066 
	C256.407349,209.658691 257.466675,208.840393 258.527374,208.838562 
	C295.987274,208.774063 333.447327,208.784744 370.907349,208.799469 
	C371.534180,208.799713 372.160919,208.979782 373.191986,209.137970 
	C373.191986,221.903870 373.191986,234.509109 372.829285,247.549026 
	C372.294159,247.965973 372.121735,247.948273 371.949341,247.930557 
z"/>
<path fill="#122ABB" opacity="1.000000" stroke="none" 
	d="
M391.556335,210.047623 
	C391.079651,209.904510 391.061340,209.731415 391.025085,209.297882 
	C418.184570,209.352722 445.373444,209.320816 472.531586,210.219360 
	C479.614044,210.453674 486.600647,213.586594 493.860474,215.666260 
	C487.876251,214.521072 481.702820,212.876480 475.436737,211.744736 
	C470.426331,210.839783 465.306549,210.114838 460.229553,210.076935 
	C437.492371,209.907181 414.753143,210.011978 391.556335,210.047623 
z"/>
<path fill="#172EBB" opacity="1.000000" stroke="none" 
	d="
M434.345673,387.142303 
	C433.771393,384.118774 433.099976,380.687622 433.064850,377.250000 
	C432.934204,364.473785 432.958527,351.694977 433.073486,338.918488 
	C433.090057,337.076172 433.920410,335.241180 434.746033,333.269745 
	C434.957886,341.562347 434.740753,349.987427 434.652893,358.413818 
	C434.554443,367.852509 434.572998,377.292358 434.345673,387.142303 
z"/>
<path fill="#2237C6" opacity="1.000000" stroke="none" 
	d="
M119.920639,383.639313 
	C123.725479,384.625275 127.771149,385.802338 131.760269,387.147156 
	C143.988037,391.269379 156.542740,392.746735 169.396942,392.047852 
	C171.040451,391.958496 172.701538,392.192230 174.683685,392.520416 
	C155.870636,395.077301 137.529907,392.424072 119.920639,383.639313 
z"/>
<path fill="#192FAB" opacity="1.000000" stroke="none" 
	d="
M10.074410,373.229034 
	C10.185883,372.570923 10.345668,372.353516 10.734058,372.078796 
	C12.153902,376.437683 13.176389,380.969604 14.754962,385.298706 
	C15.296371,386.783478 17.210316,388.787689 18.529261,388.811920 
	C32.425053,389.067474 46.327332,388.970062 60.720024,388.970062 
	C60.071419,385.624695 59.520069,382.780945 58.974567,379.540741 
	C60.322376,382.639008 61.664337,386.133728 63.165112,390.042053 
	C47.505219,390.042053 32.437126,390.111023 17.372641,389.909912 
	C16.179317,389.893982 14.396540,388.223206 13.942856,386.946533 
	C12.398065,382.599457 11.325992,378.084442 10.074410,373.229034 
z"/>
<path fill="#172EBB" opacity="1.000000" stroke="none" 
	d="
M435.549744,333.169342 
	C436.988678,332.749939 438.851257,332.008270 440.689880,332.063477 
	C454.977783,332.492096 469.162659,331.673889 483.201935,328.902435 
	C485.610901,328.426910 487.958862,327.642273 490.751709,327.036011 
	C479.945343,332.300323 467.913849,332.944489 455.838287,333.199951 
	C449.215820,333.340057 442.587830,333.219299 435.549744,333.169342 
z"/>
<path fill="#2237C6" opacity="1.000000" stroke="none" 
	d="
M68.030334,308.403442 
	C68.826912,310.116638 69.666290,312.217712 70.238297,314.389252 
	C72.231354,321.955475 74.131851,329.546143 76.057175,337.532959 
	C73.712822,330.482941 71.310608,323.047729 69.087555,315.559296 
	C68.444321,313.392517 68.315315,311.073059 68.030334,308.403442 
z"/>
<path fill="#172A97" opacity="1.000000" stroke="none" 
	d="
M252.995270,323.124847 
	C237.672363,323.113434 222.349472,323.102051 206.562668,323.109863 
	C206.709427,322.744324 207.320526,322.023254 207.930695,322.024048 
	C223.432877,322.043854 238.934952,322.139313 254.269073,322.614746 
	C253.732498,323.046906 253.363876,323.085876 252.995270,323.124847 
z"/>
<path fill="#1126A3" opacity="1.000000" stroke="none" 
	d="
M257.054260,248.908905 
	C268.016541,248.731354 278.978699,248.544952 289.941589,248.421265 
	C290.252899,248.417740 290.571747,249.081818 290.919617,249.801682 
	C279.600983,250.111893 268.249878,250.055023 256.579651,249.699997 
	C256.487640,249.177200 256.752197,249.012878 257.054260,248.908905 
z"/>
<path fill="#1125A1" opacity="1.000000" stroke="none" 
	d="
M371.577667,248.120087 
	C372.121735,247.948273 372.294159,247.965973 372.725281,248.010132 
	C371.866638,248.695847 370.757782,249.910187 369.630585,249.927460 
	C359.736633,250.079102 349.839355,250.017349 339.475769,249.980774 
	C339.008453,249.942734 338.868958,249.535370 338.800110,249.331635 
	C347.788757,249.081772 356.846741,249.070007 365.903473,248.960052 
	C367.673370,248.938553 369.438629,248.536270 371.577667,248.120087 
z"/>
<path fill="#2237C6" opacity="1.000000" stroke="none" 
	d="
M177.369751,392.530029 
	C181.658005,391.052765 186.322922,389.560913 191.028427,388.210419 
	C192.887741,387.676788 194.837418,387.457916 197.186249,387.167786 
	C191.005264,389.017242 184.383957,390.794617 177.369751,392.530029 
z"/>
<path fill="#2237C6" opacity="1.000000" stroke="none" 
	d="
M245.345078,346.886536 
	C246.860138,342.810425 248.655151,338.537628 250.794037,334.120667 
	C249.300278,338.214233 247.462662,342.452057 245.345078,346.886536 
z"/>
<path fill="#2237C6" opacity="1.000000" stroke="none" 
	d="
M78.727036,343.586731 
	C80.750946,346.291382 82.845230,349.346405 84.900299,352.781219 
	C82.839859,350.086395 80.818634,347.011719 78.727036,343.586731 
z"/>
<path fill="#2237C6" opacity="1.000000" stroke="none" 
	d="
M252.995880,323.512329 
	C253.363876,323.085876 253.732498,323.046906 254.378723,323.019287 
	C253.707108,326.377533 252.757889,329.724457 251.538330,333.344299 
	C251.844162,330.378082 252.420319,327.138947 252.995880,323.512329 
z"/>
<path fill="#2237C6" opacity="1.000000" stroke="none" 
	d="
M98.050453,368.360596 
	C99.916084,369.512024 101.902397,370.973419 103.887146,372.796814 
	C101.980774,371.662720 100.075951,370.166626 98.050453,368.360596 
z"/>
<path fill="#2237C6" opacity="1.000000" stroke="none" 
	d="
M220.332703,375.001709 
	C221.277222,373.835663 222.536591,372.614594 224.112762,371.586914 
	C223.168900,372.835754 221.908234,373.891205 220.332703,375.001709 
z"/>
<path fill="#2237C6" opacity="1.000000" stroke="none" 
	d="
M226.411514,370.060547 
	C227.604858,368.537964 229.118103,366.923859 230.970901,365.277618 
	C229.784119,366.819977 228.257767,368.394501 226.411514,370.060547 
z"/>
<path fill="#2237C6" opacity="1.000000" stroke="none" 
	d="
M114.041656,380.405396 
	C115.771294,380.976135 117.679832,381.835999 119.656296,383.045135 
	C117.889664,382.494446 116.055115,381.594482 114.041656,380.405396 
z"/>
<path fill="#2237C6" opacity="1.000000" stroke="none" 
	d="
M209.359421,382.028778 
	C210.481522,381.056274 211.941254,380.052460 213.752197,379.061707 
	C212.634628,380.049011 211.165848,381.023254 209.359421,382.028778 
z"/>
<path fill="#2237C6" opacity="1.000000" stroke="none" 
	d="
M87.881165,357.368591 
	C88.875679,358.118683 89.955696,359.184448 91.030518,360.604919 
	C90.005768,359.867828 88.986221,358.776031 87.881165,357.368591 
z"/>
<path fill="#2237C6" opacity="1.000000" stroke="none" 
	d="
M198.318359,387.105591 
	C199.220184,386.437134 200.487381,385.761230 202.148315,385.148132 
	C201.255920,385.839996 199.969833,386.469055 198.318359,387.105591 
z"/>
<path fill="#2237C6" opacity="1.000000" stroke="none" 
	d="
M233.534515,363.192719 
	C233.960678,362.240143 234.684235,361.171295 235.748322,360.077484 
	C235.336548,361.060516 234.584229,362.068451 233.534515,363.192719 
z"/>
<path fill="#2237C6" opacity="1.000000" stroke="none" 
	d="
M217.396545,377.078430 
	C217.833344,376.420807 218.579712,375.710205 219.690964,375.016388 
	C219.272598,375.697266 218.489349,376.361359 217.396545,377.078430 
z"/>
<path fill="#2237C6" opacity="1.000000" stroke="none" 
	d="
M109.154877,377.267639 
	C109.960625,377.434967 110.933258,377.866272 111.957901,378.641907 
	C111.113853,378.501343 110.217812,378.016479 109.154877,377.267639 
z"/>
<path fill="#2237C6" opacity="1.000000" stroke="none" 
	d="
M95.061020,365.316986 
	C95.955414,365.802521 96.940887,366.589050 97.938164,367.723175 
	C97.017349,367.253174 96.084724,366.435577 95.061020,365.316986 
z"/>
<path fill="#2237C6" opacity="1.000000" stroke="none" 
	d="
M240.312424,354.908508 
	C240.477829,354.075745 240.923798,353.100464 241.721725,352.087219 
	C241.580124,352.954865 241.086563,353.860443 240.312424,354.908508 
z"/>
<path fill="#2237C6" opacity="1.000000" stroke="none" 
	d="
M242.328217,351.911621 
	C242.471619,351.079742 242.885132,350.086060 243.649414,349.042816 
	C243.532898,349.912109 243.065598,350.830963 242.328217,351.911621 
z"/>
<path fill="#152DBE" opacity="1.000000" stroke="none" 
	d="
M257.005096,248.625793 
	C256.752197,249.012878 256.487640,249.177200 256.121155,249.590912 
	C255.704193,249.054825 255.426636,248.329651 255.246979,247.277466 
	C255.881912,247.414551 256.418915,247.878616 257.005096,248.625793 
z"/>
<path fill="#2237C6" opacity="1.000000" stroke="none" 
	d="
M84.879494,353.413940 
	C85.537430,353.865387 86.260597,354.627991 86.991829,355.729858 
	C86.314842,355.287781 85.629784,354.506470 84.879494,353.413940 
z"/>
<path fill="#2237C6" opacity="1.000000" stroke="none" 
	d="
M237.763992,358.265320 
	C237.856552,357.709534 238.197510,356.992981 238.858093,356.186951 
	C238.789276,356.766510 238.400818,357.435516 237.763992,358.265320 
z"/>
<path fill="#2237C6" opacity="1.000000" stroke="none" 
	d="
M231.542786,365.205139 
	C231.720535,364.634735 232.185516,363.964813 232.979492,363.265869 
	C232.815674,363.859772 232.322845,364.482727 231.542786,365.205139 
z"/>
<path fill="#2237C6" opacity="1.000000" stroke="none" 
	d="
M106.795280,375.606506 
	C107.347061,375.705902 108.046669,376.068024 108.872986,376.720093 
	C108.314163,376.629761 107.628639,376.249512 106.795280,375.606506 
z"/>
<path fill="#2237C6" opacity="1.000000" stroke="none" 
	d="
M205.332687,384.084290 
	C205.499207,383.725861 205.971527,383.369476 206.758606,383.033691 
	C206.595078,383.398285 206.116791,383.742310 205.332687,384.084290 
z"/>
<path fill="#2237C6" opacity="1.000000" stroke="none" 
	d="
M207.331024,383.075500 
	C207.495285,382.727661 207.966705,382.377045 208.749741,382.032074 
	C208.586960,382.382721 208.112579,382.727722 207.331024,383.075500 
z"/>
<path fill="#2237C6" opacity="1.000000" stroke="none" 
	d="
M203.265076,385.053955 
	C203.448669,384.702484 203.944672,384.360474 204.756409,384.038605 
	C204.573929,384.393646 204.075714,384.728516 203.265076,385.053955 
z"/>
<path fill="#2237C6" opacity="1.000000" stroke="none" 
	d="
M112.169693,379.241455 
	C112.571594,379.188843 113.129547,379.389496 113.809120,379.874817 
	C113.395737,379.937866 112.860741,379.716309 112.169693,379.241455 
z"/>
<path fill="#2237C6" opacity="1.000000" stroke="none" 
	d="
M214.333618,379.088715 
	C214.470200,378.735321 214.898529,378.359161 215.629150,377.967896 
	C215.496078,378.323822 215.060730,378.694855 214.333618,379.088715 
z"/>
<path fill="#122ABB" opacity="1.000000" stroke="none" 
	d="
M496.021698,216.654755 
	C495.587891,216.768600 494.966858,216.622742 494.180969,216.191315 
	C494.622192,216.068848 495.228363,216.231949 496.021698,216.654755 
z"/>
<path fill="#2237C6" opacity="1.000000" stroke="none" 
	d="
M105.062233,374.299744 
	C105.505730,374.271057 106.064980,374.511780 106.662407,375.073059 
	C106.193054,375.118805 105.685516,374.843964 105.062233,374.299744 
z"/>
<path fill="#2237C6" opacity="1.000000" stroke="none" 
	d="
M224.988586,371.382202 
	C224.997452,371.032959 225.237366,370.570557 225.807312,370.114319 
	C225.831451,370.503357 225.525558,370.886230 224.988586,371.382202 
z"/>
<path fill="#2237C6" opacity="1.000000" stroke="none" 
	d="
M236.328751,359.993225 
	C236.316422,359.533356 236.574768,358.979706 237.161224,358.445068 
	C237.192703,358.942505 236.896072,359.420929 236.328751,359.993225 
z"/>
<path fill="#2237C6" opacity="1.000000" stroke="none" 
	d="
M244.243896,348.836609 
	C244.180374,348.442871 244.365875,347.882111 244.821335,347.175659 
	C244.891830,347.576508 244.692368,348.123047 244.243896,348.836609 
z"/>
<path fill="#2237C6" opacity="1.000000" stroke="none" 
	d="
M76.968887,340.265839 
	C77.316917,340.441376 77.663322,340.921661 78.000824,341.712891 
	C77.650360,341.539429 77.308807,341.054993 76.968887,340.265839 
z"/>
<path fill="#2237C6" opacity="1.000000" stroke="none" 
	d="
M216.236176,377.922485 
	C216.185898,377.681519 216.405716,377.426117 216.880753,377.126892 
	C216.926086,377.358063 216.716187,377.633057 216.236176,377.922485 
z"/>
<path fill="#2237C6" opacity="1.000000" stroke="none" 
	d="
M103.927109,373.362457 
	C104.145874,373.257904 104.458046,373.409546 104.875305,373.808411 
	C104.660431,373.909973 104.340469,373.764313 103.927109,373.362457 
z"/>
<path fill="#2237C6" opacity="1.000000" stroke="none" 
	d="
M76.043205,338.287384 
	C76.307335,338.290253 76.558891,338.609009 76.801590,339.242493 
	C76.538696,339.239258 76.284668,338.921265 76.043205,338.287384 
z"/>
<path fill="#2237C6" opacity="1.000000" stroke="none" 
	d="
M93.999779,364.263672 
	C94.217834,364.182159 94.512672,364.359070 94.897903,364.784729 
	C94.684395,364.863007 94.380478,364.692566 93.999779,364.263672 
z"/>
<path fill="#2237C6" opacity="1.000000" stroke="none" 
	d="
M92.041725,362.280457 
	C92.264854,362.208130 92.551003,362.397980 92.912781,362.841888 
	C92.693855,362.911530 92.399300,362.727081 92.041725,362.280457 
z"/>
<path fill="#2237C6" opacity="1.000000" stroke="none" 
	d="
M91.086182,361.239136 
	C91.392006,361.050476 91.658073,361.236603 91.910965,361.781311 
	C91.697266,361.845551 91.413475,361.670258 91.086182,361.239136 
z"/>
<path fill="#2237C6" opacity="1.000000" stroke="none" 
	d="
M239.373047,356.075989 
	C239.263489,355.855652 239.411118,355.542419 239.805939,355.124084 
	C239.912186,355.340332 239.771210,355.661713 239.373047,356.075989 
z"/>
<path fill="#152DBE" opacity="1.000000" stroke="none" 
	d="
M255.253265,242.249603 
	C255.683441,242.194901 255.772354,242.458969 255.470612,242.890854 
	C255.281509,242.821686 255.225525,242.658264 255.253265,242.249603 
z"/>
<path fill="#2237C6" opacity="1.000000" stroke="none" 
	d="
M77.976791,342.273895 
	C78.234207,342.247650 78.486443,342.495941 78.722916,343.019043 
	C78.461983,343.045410 78.216789,342.796906 77.976791,342.273895 
z"/>
<path fill="#FCFDFE" opacity="1.000000" stroke="none" 
	d="
M470.947540,253.044128 
	C476.403046,256.342529 480.401154,260.580688 481.510834,267.258057 
	C483.482269,279.120911 477.298492,288.125916 464.920959,290.846710 
	C463.465942,291.166534 461.974609,291.320892 459.725098,291.690308 
	C450.974060,291.894104 442.997955,291.959564 435.021912,292.025055 
	C434.903229,278.239990 434.784576,264.454956 435.307434,250.353256 
	C444.277679,250.120865 452.606384,250.205124 460.935120,250.289383 
	C461.370758,250.455734 461.806396,250.622101 462.958008,250.897690 
	C466.098480,251.685989 468.523010,252.365067 470.947540,253.044128 
z"/>
<path fill="#172EA8" opacity="1.000000" stroke="none" 
	d="
M460.777649,249.961884 
	C452.606384,250.205124 444.277679,250.120865 435.482788,250.011261 
	C438.188049,249.650040 441.359283,249.041489 444.530945,249.039352 
	C449.893890,249.035736 455.257080,249.415695 460.777649,249.961884 
z"/>
<path fill="#10269F" opacity="1.000000" stroke="none" 
	d="
M435.303802,292.333069 
	C442.997955,291.959564 450.974060,291.894104 459.400146,291.904419 
	C459.719330,292.310425 459.586212,292.930481 459.458069,292.929413 
	C451.500366,292.865601 443.543060,292.751038 435.303802,292.333069 
z"/>
<path fill="#172EA8" opacity="1.000000" stroke="none" 
	d="
M470.766785,252.753876 
	C468.523010,252.365067 466.098480,251.685989 463.313171,250.871216 
	C465.496948,251.311539 468.041473,251.887589 470.766785,252.753876 
z"/>
</svg>